<svg width="3548" height="1101" viewBox="0 0 3548 1101" fill="none" xmlns="http://www.w3.org/2000/svg">
<path d="M902.16 605.639H905.067C907.775 605.639 910.284 604.484 912.634 602.135C914.943 599.825 916.974 597.117 918.727 594.011C920.479 590.905 921.713 587.52 922.51 583.857C923.266 580.193 923.665 576.808 923.665 573.702V264.048C923.665 261.34 923.266 258.234 922.51 254.769C921.713 251.265 920.558 247.999 919.005 244.893C917.452 241.787 915.501 239.199 913.191 237.048C910.881 234.938 908.133 233.863 905.067 233.863H902.16V228.049H1014.3C1044.88 228.049 1072.4 233.385 1096.81 244.017C1121.22 254.689 1141.85 268.985 1158.69 287.025C1175.54 305.024 1188.4 325.652 1197.32 348.908C1206.24 372.164 1210.7 396.375 1210.7 421.543C1210.7 445.157 1206.44 468.333 1197.92 490.992C1189.39 513.651 1176.61 533.88 1159.57 551.72C1142.53 569.521 1121.22 583.976 1095.65 595.007C1070.09 606.037 1040.46 611.572 1006.77 611.572H902.2V605.759L902.16 605.639ZM1171.75 430.184C1171.75 405.415 1167.29 381.96 1158.37 359.899C1149.45 337.837 1136.91 318.564 1120.78 302.077C1104.65 285.631 1085.62 272.53 1063.68 262.853C1041.74 253.176 1017.96 248.318 992.317 248.318H962.61V591.104H993.472C1014.46 591.104 1035.52 587.918 1056.71 581.507C1077.89 575.136 1097.01 565.26 1114.09 551.88C1131.18 538.499 1145.07 521.774 1155.75 501.625C1166.42 481.475 1171.75 457.661 1171.75 430.144V430.184Z" fill="#1E1C51"/>
<path d="M1492.44 605.639H1495.35C1498.06 605.639 1500.56 604.564 1502.91 602.453C1505.22 600.343 1507.25 597.635 1509.01 594.33C1510.76 591.024 1511.99 587.56 1512.79 583.857C1513.55 580.193 1513.94 576.808 1513.94 573.702V415.689H1328.02V573.702C1328.02 576.808 1328.41 580.193 1329.17 583.857C1329.93 587.52 1331.12 590.945 1332.68 594.011C1334.23 597.117 1336.06 599.825 1338.21 602.135C1340.32 604.444 1342.95 605.639 1346.06 605.639H1348.96V611.453H1267.65V605.639H1270.55C1273.26 605.639 1275.77 604.564 1278.12 602.453C1280.43 600.343 1282.46 597.635 1284.21 594.33C1285.97 591.024 1287.2 587.56 1288 583.857C1288.75 580.193 1289.15 576.808 1289.15 573.702V264.048C1289.15 261.34 1288.75 258.234 1288 254.769C1287.2 251.265 1286.04 247.999 1284.49 244.893C1282.94 241.787 1280.99 239.199 1278.68 237.048C1276.37 234.938 1273.62 233.863 1270.55 233.863H1267.65V228.049H1348.96V233.863H1346.06C1342.95 233.863 1340.24 234.938 1337.93 237.048C1335.62 239.199 1333.75 241.787 1332.44 244.893C1331.08 247.999 1330.01 251.265 1329.25 254.769C1328.45 258.273 1328.1 261.34 1328.1 264.048V395.34H1514.02V264.048C1514.02 261.34 1513.63 258.234 1512.87 254.769C1512.07 251.265 1510.92 247.999 1509.36 244.893C1507.81 241.787 1505.86 239.199 1503.55 237.048C1501.24 234.938 1498.49 233.863 1495.43 233.863H1492.52V228.049H1573.88V233.863H1570.97C1567.86 233.863 1565.16 234.938 1562.85 237.048C1560.54 239.199 1558.66 241.787 1557.31 244.893C1555.96 247.999 1554.88 251.265 1554.12 254.769C1553.33 258.273 1552.97 261.34 1552.97 264.048V573.702C1552.97 576.808 1553.45 580.193 1554.44 583.857C1555.4 587.52 1556.67 590.945 1558.23 594.011C1559.78 597.117 1561.61 599.825 1563.76 602.135C1565.87 604.444 1568.3 605.639 1571.01 605.639H1573.92V611.453H1492.56V605.639H1492.44Z" fill="#1E1C51"/>
<path d="M1843.95 605.639H1846.85C1856.13 605.639 1860.79 601.378 1860.79 592.856C1860.79 589.75 1860.19 586.485 1859.04 582.98L1806.75 441.812H1705.09L1654.55 580.671C1653.4 583.777 1652.8 586.684 1652.8 589.392C1652.8 594.409 1654.16 598.391 1656.86 601.298C1659.57 604.205 1662.48 605.639 1665.58 605.639H1668.49V611.453H1604.02V605.639H1606.93C1611.94 605.639 1616.88 602.652 1621.74 596.639C1626.56 590.626 1630.54 583.578 1633.65 575.414L1766.69 221L1896.83 571.91C1899.54 579.675 1903.32 587.201 1908.18 594.568C1913 601.935 1919.29 605.599 1927.05 605.599H1929.96V611.413H1843.99V605.599L1843.95 605.639ZM1710.9 422.06H1800.38L1755.66 300.644L1710.94 422.06H1710.9Z" fill="#1E1C51"/>
<path d="M2043.81 605.639H2046.72V611.453H1964.8V605.639H1967.71C1970.42 605.639 1972.93 604.484 1975.28 602.135C1977.63 599.785 1979.62 597.117 1981.37 594.011C1983.12 590.905 1984.36 587.52 1985.15 583.857C1985.91 580.193 1986.31 576.808 1986.31 573.702V264.048C1986.31 261.34 1985.91 258.234 1985.15 254.769C1984.36 251.265 1983.12 247.999 1981.37 244.893C1979.62 241.787 1977.59 239.199 1975.28 237.048C1972.97 234.938 1970.42 233.863 1967.71 233.863H1964.8V228.049H2065.91C2104.66 228.049 2134.56 235.615 2155.67 250.707C2176.78 265.8 2187.33 288.1 2187.33 317.528C2187.33 332.262 2184.9 345.125 2180.08 356.155C2175.22 367.186 2168.73 376.703 2160.61 384.628C2152.48 392.592 2142.89 398.964 2131.86 403.822C2120.83 408.68 2109.12 412.264 2096.69 414.574L2138.51 478.488C2148.58 493.979 2158.86 509.191 2169.29 524.084C2179.76 539.017 2190 554.388 2200.07 570.277C2202.78 574.14 2205.77 578.202 2209.07 582.463C2212.38 586.724 2215.84 590.586 2219.54 594.091C2223.21 597.595 2227.11 600.383 2231.17 602.533C2235.23 604.683 2239.42 605.719 2243.68 605.719V611.533H2218.71C2203.22 611.533 2190.51 607.75 2180.64 600.223C2170.76 592.657 2162.52 583.857 2155.95 573.782C2138.51 548.216 2121.18 522.292 2103.94 495.93C2086.7 469.608 2069.58 443.644 2052.53 418.078C2048.27 417.68 2043.73 417.202 2038.87 416.605C2034.02 416.008 2029.48 415.37 2025.21 414.574V573.782C2025.21 576.888 2025.61 580.273 2026.37 583.936C2027.13 587.6 2028.4 591.024 2030.15 594.091C2031.9 597.197 2033.82 599.905 2035.97 602.214C2038.08 604.524 2040.71 605.719 2043.81 605.719V605.639ZM2025.21 247.76V395.34H2028.12C2031.23 395.738 2036.16 396.017 2042.93 396.216C2049.7 396.415 2058.15 396.495 2068.22 396.495C2076.35 396.495 2084.99 395.26 2094.07 392.712C2103.15 390.203 2111.67 385.942 2119.63 379.929C2127.56 373.916 2134.17 366.071 2139.38 356.394C2144.6 346.718 2147.23 334.532 2147.23 319.798C2147.23 305.064 2144.4 293.078 2138.79 283.799C2133.17 274.521 2125.41 267.154 2115.53 261.738C2105.65 256.322 2093.75 252.658 2079.81 250.707C2065.87 248.756 2050.58 247.8 2033.9 247.8H2025.17L2025.21 247.76Z" fill="#1E1C51"/>
<path d="M2513.83 508.633C2513.83 528.026 2509.93 544.552 2502.16 558.291C2494.4 572.029 2484.4 583.18 2472.18 591.701C2459.95 600.223 2446.13 606.436 2430.8 610.298C2415.47 614.161 2400.22 616.112 2385.05 616.112C2369.88 616.112 2356.1 614.559 2344.83 611.453C2333.56 608.347 2323.28 605.44 2313.97 602.732C2307.75 600.781 2302.14 599.148 2297.12 597.794C2292.06 596.44 2287.05 595.763 2282.03 595.763V529.54H2287.84C2287.84 544.274 2291.63 555.981 2299.15 564.702C2306.68 573.423 2315.52 580.113 2325.63 584.733C2335.75 589.392 2345.82 592.378 2355.94 593.732C2366.05 595.086 2373.42 595.763 2378.08 595.763C2394.8 595.763 2409.18 593.334 2421.25 588.516C2433.31 583.658 2443.19 577.286 2450.99 569.362C2458.76 561.437 2464.49 552.596 2468.2 542.92C2471.86 533.243 2473.73 523.367 2473.73 513.292C2473.73 500.51 2471.02 489.758 2465.61 481.037C2460.19 472.316 2453.1 464.67 2444.38 458.099C2435.66 451.529 2425.71 445.914 2414.48 441.255C2403.25 436.596 2391.82 431.976 2380.19 427.317C2367.01 422.299 2354.03 417.043 2341.24 411.627C2328.46 406.211 2317.03 399.521 2306.96 391.597C2296.88 383.672 2288.76 374.155 2282.55 363.124C2276.33 352.094 2273.27 338.435 2273.27 322.148C2273.27 305.86 2276.57 290.29 2283.14 277.706C2289.71 265.123 2298.55 254.769 2309.59 246.606C2320.62 238.482 2333.2 232.389 2347.34 228.288C2361.47 224.226 2375.89 222.195 2390.62 222.195C2400.7 222.195 2410.18 222.872 2419.1 224.226C2428.02 225.58 2436.54 227.212 2444.66 229.164C2451.23 230.717 2457.64 231.991 2463.86 232.947C2470.03 233.902 2476.04 234.42 2481.85 234.42V294.272H2476.04C2475.24 274.122 2467.28 260.464 2452.15 253.296C2436.97 246.128 2415.99 242.544 2389.19 242.544C2373.66 242.544 2360.92 245.172 2351 250.389C2341.08 255.605 2333.2 262.017 2327.39 269.543C2321.57 277.109 2317.59 285.233 2315.44 293.954C2313.29 302.675 2312.25 310.32 2312.25 316.891C2312.25 327.723 2314.68 337.041 2319.54 344.766C2324.4 352.532 2330.89 359.301 2339.05 365.115C2347.22 370.929 2356.62 376.146 2367.33 380.805C2378 385.464 2389.19 389.924 2400.82 394.185C2414 399.203 2427.42 404.658 2441 410.433C2454.62 416.247 2466.72 423.415 2477.43 431.936C2488.11 440.458 2496.87 450.931 2503.68 463.316C2510.49 475.701 2513.87 490.833 2513.87 508.633H2513.83Z" fill="#1E1C51"/>
<path d="M2688.69 605.639H2691.59V611.453H2609.08V605.639H2611.99C2615.1 605.639 2617.8 604.484 2620.11 602.135C2622.42 599.825 2624.45 597.117 2626.21 594.011C2627.96 590.905 2629.19 587.52 2629.99 583.856C2630.75 580.193 2631.14 576.808 2631.14 573.702V249.513H2563.76C2557.55 249.513 2552.14 250.866 2547.48 253.574C2542.82 256.282 2538.96 259.667 2535.85 263.729C2532.74 267.791 2530.43 272.251 2528.88 277.109C2527.33 281.967 2526.57 286.706 2526.57 291.325H2520.76V228.009H2781.63V291.325H2775.82C2775.82 286.666 2775.02 281.927 2773.51 277.109C2771.95 272.251 2769.64 267.831 2766.54 263.729C2763.43 259.667 2759.57 256.282 2754.91 253.574C2750.25 250.866 2744.84 249.513 2738.66 249.513H2670.09V573.702C2670.09 576.808 2670.49 580.193 2671.24 583.856C2672 587.52 2673.28 590.945 2675.03 594.011C2676.78 597.117 2678.69 599.825 2680.84 602.135C2682.95 604.444 2685.58 605.639 2688.69 605.639Z" fill="#1E1C51"/>
<path d="M2813.61 605.639H2816.52C2819.62 605.639 2822.33 604.564 2824.64 602.453C2826.95 600.343 2828.98 597.715 2830.73 594.608C2832.48 591.502 2833.84 588.237 2834.79 584.733C2835.75 581.228 2836.27 577.963 2836.27 574.857V264.008C2836.27 261.3 2835.79 258.194 2834.79 254.729C2833.84 251.225 2832.48 247.959 2830.73 244.853C2828.98 241.747 2826.95 239.159 2824.64 237.008C2822.33 234.898 2819.58 233.823 2816.52 233.823H2813.61V228.009H3037.29V282.047H3031.47C3030.68 273.127 3027.21 265.282 3021 258.512C3014.79 251.742 3005.11 248.358 2991.97 248.358H2875.17V395.34H2971.62C2980.54 395.34 2987.99 392.632 2994 387.216C3000.01 381.801 3003 375.389 3003 368.062H3008.81V440.697H3003C3003 433.728 3000.09 427.715 2994.28 422.698C2988.47 417.68 2980.9 415.131 2971.62 415.131H2875.17V591.184H3002.4C3009.77 591.184 3016.14 589.432 3021.56 585.967C3026.97 582.463 3031.51 578.321 3035.22 573.463C3038.88 568.645 3041.59 563.388 3043.34 557.773C3045.09 552.158 3045.97 547.419 3045.97 543.517H3051.78V611.493H2813.57V605.679L2813.61 605.639Z" fill="#1E1C51"/>
<path d="M3280.12 243.101C3251.45 243.101 3226.56 248.238 3205.46 258.512C3184.35 268.786 3166.83 282.127 3152.89 298.613C3138.95 315.099 3128.6 333.576 3121.83 354.085C3115.06 374.633 3111.67 394.942 3111.67 415.092C3111.67 437.949 3116.14 460.329 3125.06 482.191C3133.98 504.093 3146.28 523.447 3161.93 540.292C3177.62 557.136 3195.94 570.715 3216.84 580.95C3237.75 591.224 3260.41 596.361 3284.82 596.361C3291.79 596.361 3300.03 595.604 3309.51 594.051C3318.99 592.498 3328.38 589.511 3337.7 585.051C3346.98 580.591 3355.62 574.299 3363.55 566.176C3371.47 558.052 3377.57 547.38 3381.87 534.239H3387.68V598.71C3381.87 598.71 3375.77 599.507 3369.36 601.02C3362.95 602.573 3355.9 604.325 3348.14 606.236C3338.06 608.944 3326.95 611.453 3314.73 613.803C3302.54 616.112 3289.64 617.307 3276.1 617.307C3242.41 617.307 3212.78 611.493 3187.22 599.865C3161.65 588.237 3140.39 573.145 3123.42 554.548C3106.46 535.951 3093.75 514.965 3085.35 491.51C3076.95 468.095 3072.77 444.361 3072.77 420.348C3072.77 396.336 3076.95 372.522 3085.35 348.868C3093.75 325.254 3106.62 304.029 3123.98 285.233C3141.34 266.437 3163.2 251.225 3189.53 239.637C3215.85 228.009 3246.83 222.195 3282.47 222.195C3295.25 222.195 3306.76 223.35 3317.04 225.699C3327.31 228.009 3336.51 230.358 3344.63 232.668C3350.45 234.619 3355.74 236.053 3360.6 237.009C3365.46 237.964 3370.2 238.442 3374.86 238.442V302.953H3369.04C3366.73 290.967 3362.43 280.972 3356.26 273.047C3350.05 265.123 3342.8 259.03 3334.48 254.729C3326.15 250.468 3317.23 247.482 3307.76 245.73C3298.28 243.977 3289.08 243.101 3280.16 243.101H3280.12Z" fill="#1E1C51"/>
<path d="M1341.4 789.656C1340.72 781.691 1337.81 775.678 1332.76 771.656C1327.7 767.634 1320.41 765.643 1310.93 765.643C1302.37 765.643 1295.4 767.236 1290.07 770.422C1284.69 773.608 1282.02 778.267 1282.02 784.36C1282.02 789.775 1284.09 793.797 1288.24 796.465C1292.38 799.134 1300.3 801.762 1311.97 804.39C1322.36 806.66 1330.8 809.009 1337.37 811.399C1343.95 813.788 1349.56 817.531 1354.22 822.549C1358.88 827.566 1361.23 834.376 1361.23 842.858C1361.23 853.65 1356.93 862.609 1348.37 869.738C1339.76 876.866 1328.57 880.45 1314.8 880.45C1297.15 880.45 1283.97 876.507 1275.21 868.662C1266.45 860.778 1261.83 850.583 1261.32 838.039L1277.04 836.685C1277.8 846.721 1281.66 854.048 1288.67 858.627C1295.68 863.207 1304.16 865.516 1314.08 865.516C1323.36 865.516 1330.88 863.605 1336.62 859.782C1342.35 855.959 1345.22 850.782 1345.22 844.212C1345.22 837.641 1342.23 832.385 1336.22 829.239C1330.25 826.093 1320.17 823.027 1306.08 819.96C1291.98 816.894 1281.78 812.633 1275.57 807.098C1269.36 801.563 1266.25 794.395 1266.25 785.554C1266.25 775.519 1270.2 767.236 1278.04 760.666C1285.93 754.095 1296.64 750.83 1310.22 750.83C1323.8 750.83 1335.34 754.095 1343.79 760.626C1352.27 767.157 1356.73 776.435 1357.25 788.461L1341.32 789.736L1341.4 789.656Z" fill="#1E1C51"/>
<path d="M1438.68 750.75C1456.24 750.75 1470.62 756.723 1481.81 768.63C1493 780.537 1498.57 796.266 1498.57 815.779C1498.57 835.292 1492.96 850.862 1481.73 862.689C1470.5 874.516 1456.16 880.45 1438.68 880.45C1421.2 880.45 1406.07 874.317 1395.04 862.052C1384.04 849.787 1378.51 834.814 1378.51 817.133C1378.51 796.545 1384.08 780.338 1395.23 768.51C1406.38 756.683 1420.84 750.75 1438.64 750.75H1438.68ZM1438.52 866.233C1451.22 866.233 1461.54 861.773 1469.46 852.893C1477.35 844.013 1481.33 831.628 1481.41 815.779C1481.41 799.452 1477.39 786.908 1469.3 778.147C1461.22 769.347 1451.1 764.966 1438.88 764.966C1426.65 764.966 1416.02 769.267 1407.9 777.869C1399.81 786.47 1395.75 799.691 1395.75 817.491C1395.75 832.026 1399.74 843.814 1407.66 852.773C1415.58 861.733 1425.9 866.233 1438.56 866.233H1438.52Z" fill="#1E1C51"/>
<path d="M1598.25 878.299H1519.8V752.861H1536.4V863.406H1598.25V878.299Z" fill="#1E1C51"/>
<path d="M1716.56 825.416C1716.56 831.867 1716.2 837.84 1715.48 843.296C1714.77 848.791 1712.9 854.406 1709.83 860.18C1706.76 865.955 1701.82 870.773 1694.94 874.636C1688.05 878.498 1678.89 880.41 1667.42 880.41C1655.95 880.41 1647.23 878.697 1640.38 875.273C1633.53 871.848 1628.51 867.428 1625.33 862.012C1622.14 856.596 1620.11 850.942 1619.19 845.088C1618.32 839.234 1617.88 832.664 1617.88 825.416V752.861H1634.49V825.137C1634.49 832.663 1635.04 839.155 1636.12 844.61C1637.19 850.066 1640.06 854.884 1644.68 859.105C1649.3 863.326 1656.43 865.437 1666.06 865.437C1675.7 865.437 1683.15 863.764 1688.05 860.379C1692.94 857.034 1696.13 852.535 1697.64 846.92C1699.12 841.305 1699.87 834.057 1699.87 825.137V752.861H1716.56V825.416Z" fill="#1E1C51"/>
<path d="M1833.79 767.754H1792.3V878.299H1775.61V767.754H1734.48V752.861H1833.79V767.754Z" fill="#1E1C51"/>
<path d="M1870.39 878.299H1853.7V752.861H1870.39V878.299Z" fill="#1E1C51"/>
<path d="M1954.65 750.75C1972.21 750.75 1986.59 756.723 1997.78 768.63C2008.97 780.537 2014.54 796.266 2014.54 815.779C2014.54 835.292 2008.93 850.862 1997.7 862.689C1986.47 874.516 1972.13 880.45 1954.65 880.45C1937.17 880.45 1922.04 874.317 1911.01 862.052C1900.02 849.787 1894.48 834.814 1894.48 817.133C1894.48 796.545 1900.06 780.338 1911.21 768.51C1922.36 756.683 1936.81 750.75 1954.61 750.75H1954.65ZM1954.49 866.233C1967.2 866.233 1977.51 861.773 1985.43 852.893C1993.32 844.013 1997.3 831.628 1997.38 815.779C1997.38 799.452 1993.36 786.908 1985.27 778.147C1977.19 769.347 1967.08 764.966 1954.85 764.966C1942.63 764.966 1931.99 769.267 1923.87 777.869C1915.79 786.47 1911.72 799.691 1911.72 817.491C1911.72 832.026 1915.71 843.814 1923.63 852.773C1931.55 861.733 1941.87 866.233 1954.53 866.233H1954.49Z" fill="#1E1C51"/>
<path d="M2135.12 878.299H2118.08L2052.53 779.82H2052.17V878.299H2036.44V752.861H2053.37L2118.92 851.34H2119.27V752.861H2135.08V878.299H2135.12Z" fill="#1E1C51"/>
<path d="M2237.07 789.656C2236.39 781.691 2233.48 775.678 2228.43 771.656C2223.37 767.634 2216.08 765.643 2206.61 765.643C2198.04 765.643 2191.07 767.236 2185.74 770.422C2180.36 773.608 2177.69 778.267 2177.69 784.36C2177.69 789.775 2179.77 793.797 2183.91 796.465C2188.05 799.134 2195.97 801.762 2207.64 804.39C2218.03 806.66 2226.48 809.009 2233.05 811.399C2239.62 813.788 2245.23 817.531 2249.89 822.549C2254.55 827.566 2256.9 834.376 2256.9 842.858C2256.9 853.65 2252.6 862.609 2244.04 869.738C2235.44 876.866 2224.25 880.45 2210.47 880.45C2192.83 880.45 2179.65 876.507 2170.89 868.662C2162.12 860.778 2157.5 850.583 2156.99 838.039L2172.72 836.685C2173.47 846.721 2177.34 854.048 2184.34 858.627C2191.35 863.207 2199.84 865.516 2209.75 865.516C2219.03 865.516 2226.56 863.605 2232.29 859.782C2238.02 855.959 2240.89 850.782 2240.89 844.212C2240.89 837.641 2237.91 832.385 2231.89 829.239C2225.92 826.093 2215.84 823.027 2201.75 819.96C2187.65 816.894 2177.46 812.633 2171.24 807.098C2165.03 801.563 2161.93 794.395 2161.93 785.554C2161.93 775.519 2165.87 767.236 2173.71 760.666C2181.6 754.095 2192.31 750.83 2205.89 750.83C2219.47 750.83 2231.02 754.095 2239.46 760.626C2247.94 767.157 2252.4 776.435 2252.92 788.461L2236.99 789.736L2237.07 789.656Z" fill="#1E1C51"/>
<path d="M2328.22 752.86H2375.53C2383.02 752.86 2389.43 753.219 2394.8 753.975C2400.18 754.732 2405.2 756.644 2409.82 759.75C2414.44 762.856 2417.94 767.077 2420.29 772.413C2422.64 777.749 2423.83 783.324 2423.83 789.138C2423.83 800.726 2420.13 810.005 2412.68 816.974C2405.24 823.942 2393.29 827.447 2376.88 827.447H2344.79V878.259H2328.18V752.821L2328.22 752.86ZM2344.79 812.593H2377.04C2396.79 812.593 2406.63 804.947 2406.63 789.656C2406.63 784.638 2405.36 780.218 2402.77 776.355C2400.18 772.493 2397.03 770.103 2393.33 769.187C2389.59 768.232 2384.05 767.794 2376.68 767.794H2344.79V812.633V812.593Z" fill="#1E1C51"/>
<path d="M2547.24 752.861L2498.14 878.299H2481.22L2432.63 752.861H2450.51L2483.13 843.973C2485.6 849.787 2487.75 856.596 2489.62 864.402H2489.98C2491.69 857.711 2493.84 850.902 2496.47 843.973L2530.44 752.861H2547.28H2547.24Z" fill="#1E1C51"/>
<path d="M2651.62 767.754H2610.12V878.299H2593.44V767.754H2552.3V752.861H2651.62V767.754Z" fill="#1E1C51"/>
<path d="M2795.77 878.299H2717.32V752.861H2733.92V863.406H2795.77V878.299Z" fill="#1E1C51"/>
<path d="M2904.76 767.754H2863.26V878.299H2846.58V767.754H2805.44V752.861H2904.76V767.754Z" fill="#1E1C51"/>
<path d="M2922.64 752.86H2965.93C2973.54 752.86 2980.03 753.259 2985.52 754.015C2991.02 754.772 2996.23 756.683 3001.21 759.67C3006.19 762.657 3010.57 766.798 3014.31 772.015C3018.06 777.271 3021 783.284 3023.11 790.094C3025.26 796.903 3026.34 805.186 3026.34 814.863C3026.34 833.34 3021.96 848.512 3013.16 860.419C3004.36 872.326 2989.26 878.259 2967.8 878.259H2922.64V752.821V752.86ZM2939.25 863.406H2966.13C2971.62 863.406 2976.48 863.047 2980.78 862.37C2985.08 861.693 2989.46 859.822 2993.88 856.795C2998.3 853.769 3001.97 848.831 3004.88 841.902C3007.78 835.013 3009.26 825.894 3009.26 814.505C3009.26 808.213 3008.7 802.359 3007.58 796.903C3006.47 791.448 3004.44 786.51 3001.41 782.01C2998.42 777.55 2994.96 774.245 2991.1 772.174C2987.23 770.103 2983.45 768.829 2979.75 768.351C2976.08 767.913 2971.35 767.674 2965.57 767.674H2939.21V863.326L2939.25 863.406Z" fill="#1E1C51"/>
<path d="M138 296.46C166.586 277.112 197.784 262.122 227.4 244.468C240.637 236.574 254.479 229.677 267.616 221.634C273.82 217.824 278.442 218.372 284.571 221.833C377.036 274.274 469.6 326.515 562.241 378.607C568.872 382.342 571.183 386.724 571.158 394.319C570.881 497.158 570.881 599.996 571.183 702.835C571.183 711.002 568.671 715.46 561.562 719.444C468.872 771.511 376.332 823.851 283.843 876.219C278.844 879.056 274.875 880.348 269.148 877.039C236.669 858.263 203.988 839.81 171.132 821.685C164.3 817.925 162.29 813.368 162.316 805.898C162.542 703.483 162.542 601.042 162.316 498.627C162.316 491.156 164.225 486.575 171.107 482.79C203.612 464.911 235.865 446.585 268.068 428.158C273.268 425.195 277.387 424.498 282.939 427.735C307.832 442.152 332.876 456.321 358.121 470.116C366.31 474.598 365.431 476.814 357.92 480.972C326.194 498.527 294.795 516.729 263.019 534.185C255.985 538.044 252.996 542.153 253.046 550.519C253.423 618.099 253.197 685.704 253.222 753.283C253.222 769.768 271.409 779.927 285.978 771.685C347.319 736.999 408.56 702.163 470.052 667.8C477.965 663.368 480.955 658.562 480.904 649.448C480.477 581.869 480.528 514.264 480.854 446.684C480.879 439.14 478.794 434.707 472.062 430.947C409.163 395.663 346.39 360.205 283.792 324.423C277.111 320.589 272.514 322.207 266.762 325.469C228.731 347.108 190.55 368.522 152.393 389.961C149.881 391.356 147.169 392.377 144.556 393.572C137.221 392.451 138.603 386.798 138.553 382.018C138.226 353.482 139.13 324.946 138.05 296.41L138 296.46Z" fill="#1F1D51"/>
</svg>
