<svg width="3412" height="1101" viewBox="0 0 3412 1101" fill="none" xmlns="http://www.w3.org/2000/svg">
<path d="M49 143.757C94.6652 112.596 144.504 88.453 191.814 60.0187C212.961 47.3055 235.072 36.1965 256.058 23.2426C265.97 17.1066 273.353 17.9888 283.144 23.5634C430.854 108.024 578.724 192.164 726.715 276.063C737.308 282.079 741 289.137 740.96 301.369C740.518 467.002 740.518 632.634 741 798.267C741 811.421 736.987 818.6 725.631 825.017C577.56 908.876 429.73 993.176 281.981 1077.52C273.995 1082.09 267.655 1084.17 258.506 1078.84C206.621 1048.6 154.415 1018.88 101.928 989.687C91.0136 983.631 87.8034 976.292 87.8435 964.261C88.2046 799.31 88.2046 634.319 87.8435 469.368C87.8435 457.336 90.8932 449.957 101.888 443.861C153.813 415.066 205.337 385.549 256.781 355.871C265.087 351.099 271.668 349.976 280.536 355.19C320.303 378.41 360.31 401.23 400.638 423.448C413.72 430.667 412.315 434.236 400.317 440.934C349.636 469.208 299.476 498.524 248.715 526.638C237.479 532.854 232.704 539.471 232.784 552.946C233.386 661.791 233.025 770.675 233.065 879.519C233.065 906.069 262.118 922.431 285.392 909.157C383.383 853.291 481.214 797.184 579.446 741.84C592.087 734.701 596.862 726.961 596.781 712.282C596.099 603.438 596.18 494.554 596.701 385.709C596.741 373.558 593.411 366.419 582.657 360.363C482.177 303.535 381.898 246.426 281.9 188.795C271.226 182.619 263.883 185.226 254.694 190.48C193.941 225.331 132.947 259.821 71.9931 294.351C67.9803 296.597 63.6466 298.241 59.4733 300.166C47.756 298.361 49.9631 289.257 49.8828 281.557C49.3611 235.597 50.8057 189.637 49.0803 143.677L49 143.757Z" fill="#1F1D51"/>
<path d="M834.16 605.639H837.067C839.775 605.639 842.284 604.484 844.634 602.135C846.943 599.825 848.974 597.117 850.727 594.011C852.479 590.905 853.713 587.52 854.51 583.857C855.266 580.193 855.665 576.808 855.665 573.702V264.048C855.665 261.34 855.266 258.234 854.51 254.769C853.713 251.265 852.558 247.999 851.005 244.893C849.452 241.787 847.501 239.199 845.191 237.048C842.881 234.938 840.133 233.863 837.067 233.863H834.16V228.049H946.299C976.882 228.049 1004.4 233.385 1028.81 244.017C1053.22 254.689 1073.85 268.985 1090.69 287.025C1107.54 305.024 1120.4 325.652 1129.32 348.908C1138.24 372.164 1142.7 396.375 1142.7 421.543C1142.7 445.157 1138.44 468.333 1129.92 490.992C1121.39 513.651 1108.61 533.88 1091.57 551.72C1074.53 569.521 1053.22 583.976 1027.65 595.007C1002.09 606.037 972.461 611.572 938.772 611.572H834.2V605.759L834.16 605.639ZM1103.75 430.184C1103.75 405.415 1099.29 381.96 1090.37 359.899C1081.45 337.837 1068.91 318.564 1052.78 302.077C1036.65 285.631 1017.62 272.53 995.678 262.853C973.736 253.176 949.963 248.318 924.317 248.318H894.61V591.104H925.472C946.458 591.104 967.524 587.918 988.709 581.507C1009.89 575.136 1029.01 565.26 1046.09 551.88C1063.18 538.499 1077.07 521.774 1087.75 501.625C1098.42 481.475 1103.75 457.661 1103.75 430.144V430.184Z" fill="#1E1C51"/>
<path d="M1424.44 605.639H1427.35C1430.06 605.639 1432.56 604.564 1434.91 602.453C1437.22 600.343 1439.25 597.635 1441.01 594.33C1442.76 591.024 1443.99 587.56 1444.79 583.857C1445.55 580.193 1445.94 576.808 1445.94 573.702V415.689H1260.02V573.702C1260.02 576.808 1260.41 580.193 1261.17 583.857C1261.93 587.52 1263.12 590.945 1264.68 594.011C1266.23 597.117 1268.06 599.825 1270.21 602.135C1272.32 604.444 1274.95 605.639 1278.06 605.639H1280.96V611.453H1199.65V605.639H1202.55C1205.26 605.639 1207.77 604.564 1210.12 602.453C1212.43 600.343 1214.46 597.635 1216.21 594.33C1217.97 591.024 1219.2 587.56 1220 583.857C1220.75 580.193 1221.15 576.808 1221.15 573.702V264.048C1221.15 261.34 1220.75 258.234 1220 254.769C1219.2 251.265 1218.04 247.999 1216.49 244.893C1214.94 241.787 1212.99 239.199 1210.68 237.048C1208.37 234.938 1205.62 233.863 1202.55 233.863H1199.65V228.049H1280.96V233.863H1278.06C1274.95 233.863 1272.24 234.938 1269.93 237.048C1267.62 239.199 1265.75 241.787 1264.44 244.893C1263.08 247.999 1262.01 251.265 1261.25 254.769C1260.45 258.273 1260.1 261.34 1260.1 264.048V395.34H1446.02V264.048C1446.02 261.34 1445.63 258.234 1444.87 254.769C1444.07 251.265 1442.92 247.999 1441.36 244.893C1439.81 241.787 1437.86 239.199 1435.55 237.048C1433.24 234.938 1430.49 233.863 1427.43 233.863H1424.52V228.049H1505.88V233.863H1502.97C1499.86 233.863 1497.16 234.938 1494.85 237.048C1492.54 239.199 1490.66 241.787 1489.31 244.893C1487.96 247.999 1486.88 251.265 1486.12 254.769C1485.33 258.273 1484.97 261.34 1484.97 264.048V573.702C1484.97 576.808 1485.45 580.193 1486.44 583.857C1487.4 587.52 1488.67 590.945 1490.23 594.011C1491.78 597.117 1493.61 599.825 1495.76 602.135C1497.87 604.444 1500.3 605.639 1503.01 605.639H1505.92V611.453H1424.56V605.639H1424.44Z" fill="#1E1C51"/>
<path d="M1775.95 605.639H1778.85C1788.13 605.639 1792.79 601.378 1792.79 592.856C1792.79 589.75 1792.19 586.485 1791.04 582.98L1738.75 441.812H1637.09L1586.55 580.671C1585.4 583.777 1584.8 586.684 1584.8 589.392C1584.8 594.409 1586.16 598.391 1588.86 601.298C1591.57 604.205 1594.48 605.639 1597.58 605.639H1600.49V611.453H1536.02V605.639H1538.93C1543.94 605.639 1548.88 602.652 1553.74 596.639C1558.56 590.626 1562.54 583.578 1565.65 575.414L1698.69 221L1828.83 571.91C1831.54 579.675 1835.32 587.201 1840.18 594.568C1845 601.935 1851.29 605.599 1859.05 605.599H1861.96V611.413H1775.99V605.599L1775.95 605.639ZM1642.9 422.06H1732.38L1687.66 300.644L1642.94 422.06H1642.9Z" fill="#1E1C51"/>
<path d="M1975.81 605.639H1978.72V611.453H1896.8V605.639H1899.71C1902.42 605.639 1904.93 604.484 1907.28 602.135C1909.63 599.785 1911.62 597.117 1913.37 594.011C1915.12 590.905 1916.36 587.52 1917.15 583.857C1917.91 580.193 1918.31 576.808 1918.31 573.702V264.048C1918.31 261.34 1917.91 258.234 1917.15 254.769C1916.36 251.265 1915.12 247.999 1913.37 244.893C1911.62 241.787 1909.59 239.199 1907.28 237.048C1904.97 234.938 1902.42 233.863 1899.71 233.863H1896.8V228.049H1997.91C2036.66 228.049 2066.56 235.615 2087.67 250.707C2108.78 265.8 2119.33 288.1 2119.33 317.528C2119.33 332.262 2116.9 345.125 2112.08 356.155C2107.22 367.186 2100.73 376.703 2092.61 384.628C2084.48 392.592 2074.89 398.964 2063.86 403.822C2052.83 408.68 2041.12 412.264 2028.69 414.574L2070.51 478.488C2080.58 493.979 2090.86 509.191 2101.29 524.084C2111.76 539.017 2122 554.388 2132.07 570.277C2134.78 574.14 2137.77 578.202 2141.07 582.463C2144.38 586.724 2147.84 590.586 2151.54 594.091C2155.21 597.595 2159.11 600.383 2163.17 602.533C2167.23 604.683 2171.42 605.719 2175.68 605.719V611.533H2150.71C2135.22 611.533 2122.51 607.75 2112.64 600.223C2102.76 592.657 2094.52 583.857 2087.95 573.782C2070.51 548.216 2053.18 522.292 2035.94 495.93C2018.7 469.608 2001.58 443.644 1984.53 418.078C1980.27 417.68 1975.73 417.202 1970.87 416.605C1966.02 416.008 1961.48 415.37 1957.21 414.574V573.782C1957.21 576.888 1957.61 580.273 1958.37 583.936C1959.13 587.6 1960.4 591.024 1962.15 594.091C1963.9 597.197 1965.82 599.905 1967.97 602.214C1970.08 604.524 1972.71 605.719 1975.81 605.719V605.639ZM1957.21 247.76V395.34H1960.12C1963.23 395.738 1968.16 396.017 1974.93 396.216C1981.7 396.415 1990.15 396.495 2000.22 396.495C2008.35 396.495 2016.99 395.26 2026.07 392.712C2035.15 390.203 2043.67 385.942 2051.63 379.929C2059.56 373.916 2066.17 366.071 2071.38 356.394C2076.6 346.718 2079.23 334.532 2079.23 319.798C2079.23 305.064 2076.4 293.078 2070.79 283.799C2065.17 274.521 2057.41 267.154 2047.53 261.738C2037.65 256.322 2025.75 252.658 2011.81 250.707C1997.87 248.756 1982.58 247.8 1965.9 247.8H1957.17L1957.21 247.76Z" fill="#1E1C51"/>
<path d="M2445.83 508.633C2445.83 528.026 2441.93 544.552 2434.16 558.291C2426.4 572.029 2416.4 583.18 2404.18 591.701C2391.95 600.223 2378.13 606.436 2362.8 610.298C2347.47 614.161 2332.22 616.112 2317.05 616.112C2301.88 616.112 2288.1 614.559 2276.83 611.453C2265.56 608.347 2255.28 605.44 2245.97 602.732C2239.75 600.781 2234.14 599.148 2229.12 597.794C2224.06 596.44 2219.05 595.763 2214.03 595.763V529.54H2219.84C2219.84 544.274 2223.63 555.981 2231.15 564.702C2238.68 573.423 2247.52 580.113 2257.63 584.733C2267.75 589.392 2277.82 592.378 2287.94 593.732C2298.05 595.086 2305.42 595.763 2310.08 595.763C2326.8 595.763 2341.18 593.334 2353.25 588.516C2365.31 583.658 2375.19 577.286 2382.99 569.362C2390.76 561.437 2396.49 552.596 2400.2 542.92C2403.86 533.243 2405.73 523.367 2405.73 513.292C2405.73 500.51 2403.02 489.758 2397.61 481.037C2392.19 472.316 2385.1 464.67 2376.38 458.099C2367.66 451.529 2357.71 445.914 2346.48 441.255C2335.25 436.596 2323.82 431.976 2312.19 427.317C2299.01 422.299 2286.03 417.043 2273.24 411.627C2260.46 406.211 2249.03 399.521 2238.96 391.597C2228.88 383.672 2220.76 374.155 2214.55 363.124C2208.33 352.094 2205.27 338.435 2205.27 322.148C2205.27 305.86 2208.57 290.29 2215.14 277.706C2221.71 265.123 2230.55 254.769 2241.59 246.606C2252.62 238.482 2265.2 232.389 2279.34 228.288C2293.47 224.226 2307.89 222.195 2322.62 222.195C2332.7 222.195 2342.18 222.872 2351.1 224.226C2360.02 225.58 2368.54 227.212 2376.66 229.164C2383.23 230.717 2389.64 231.991 2395.86 232.947C2402.03 233.902 2408.04 234.42 2413.85 234.42V294.272H2408.04C2407.24 274.122 2399.28 260.464 2384.15 253.296C2368.97 246.128 2347.99 242.544 2321.19 242.544C2305.66 242.544 2292.92 245.172 2283 250.389C2273.08 255.605 2265.2 262.017 2259.39 269.543C2253.57 277.109 2249.59 285.233 2247.44 293.954C2245.29 302.675 2244.25 310.32 2244.25 316.891C2244.25 327.723 2246.68 337.041 2251.54 344.766C2256.4 352.532 2262.89 359.301 2271.05 365.115C2279.22 370.929 2288.62 376.146 2299.33 380.805C2310 385.464 2321.19 389.924 2332.82 394.185C2346 399.203 2359.42 404.658 2373 410.433C2386.62 416.247 2398.72 423.415 2409.43 431.936C2420.11 440.458 2428.87 450.931 2435.68 463.316C2442.49 475.701 2445.87 490.833 2445.87 508.633H2445.83Z" fill="#1E1C51"/>
<path d="M2620.69 605.639H2623.59V611.453H2541.08V605.639H2543.99C2547.1 605.639 2549.8 604.484 2552.11 602.135C2554.42 599.825 2556.45 597.117 2558.21 594.011C2559.96 590.905 2561.19 587.52 2561.99 583.856C2562.75 580.193 2563.14 576.808 2563.14 573.702V249.513H2495.76C2489.55 249.513 2484.14 250.866 2479.48 253.574C2474.82 256.282 2470.96 259.667 2467.85 263.729C2464.74 267.791 2462.43 272.251 2460.88 277.109C2459.33 281.967 2458.57 286.706 2458.57 291.325H2452.76V228.009H2713.63V291.325H2707.82C2707.82 286.666 2707.02 281.927 2705.51 277.109C2703.95 272.251 2701.64 267.831 2698.54 263.729C2695.43 259.667 2691.57 256.282 2686.91 253.574C2682.25 250.866 2676.84 249.513 2670.66 249.513H2602.09V573.702C2602.09 576.808 2602.49 580.193 2603.24 583.856C2604 587.52 2605.28 590.945 2607.03 594.011C2608.78 597.117 2610.69 599.825 2612.84 602.135C2614.95 604.444 2617.58 605.639 2620.69 605.639Z" fill="#1E1C51"/>
<path d="M2745.61 605.639H2748.52C2751.62 605.639 2754.33 604.564 2756.64 602.453C2758.95 600.343 2760.98 597.715 2762.73 594.608C2764.48 591.502 2765.84 588.237 2766.79 584.733C2767.75 581.228 2768.27 577.963 2768.27 574.857V264.008C2768.27 261.3 2767.79 258.194 2766.79 254.729C2765.84 251.225 2764.48 247.959 2762.73 244.853C2760.98 241.747 2758.95 239.159 2756.64 237.008C2754.33 234.898 2751.58 233.823 2748.52 233.823H2745.61V228.009H2969.29V282.047H2963.47C2962.68 273.127 2959.21 265.282 2953 258.512C2946.79 251.742 2937.11 248.358 2923.97 248.358H2807.17V395.34H2903.62C2912.54 395.34 2919.99 392.632 2926 387.216C2932.01 381.801 2935 375.389 2935 368.062H2940.81V440.697H2935C2935 433.728 2932.09 427.715 2926.28 422.698C2920.47 417.68 2912.9 415.131 2903.62 415.131H2807.17V591.184H2934.4C2941.77 591.184 2948.14 589.432 2953.56 585.967C2958.97 582.463 2963.51 578.321 2967.22 573.463C2970.88 568.645 2973.59 563.388 2975.34 557.773C2977.09 552.158 2977.97 547.419 2977.97 543.517H2983.78V611.493H2745.57V605.679L2745.61 605.639Z" fill="#1E1C51"/>
<path d="M3212.12 243.101C3183.45 243.101 3158.56 248.238 3137.46 258.512C3116.35 268.786 3098.83 282.127 3084.89 298.613C3070.95 315.099 3060.6 333.576 3053.83 354.085C3047.06 374.633 3043.67 394.942 3043.67 415.092C3043.67 437.949 3048.14 460.329 3057.06 482.191C3065.98 504.093 3078.28 523.447 3093.93 540.292C3109.62 557.136 3127.94 570.715 3148.84 580.95C3169.75 591.224 3192.41 596.361 3216.82 596.361C3223.79 596.361 3232.03 595.604 3241.51 594.051C3250.99 592.498 3260.38 589.511 3269.7 585.051C3278.98 580.591 3287.62 574.299 3295.55 566.176C3303.47 558.052 3309.57 547.38 3313.87 534.239H3319.68V598.71C3313.87 598.71 3307.77 599.507 3301.36 601.02C3294.95 602.573 3287.9 604.325 3280.14 606.236C3270.06 608.944 3258.95 611.453 3246.73 613.803C3234.54 616.112 3221.64 617.307 3208.1 617.307C3174.41 617.307 3144.78 611.493 3119.22 599.865C3093.65 588.237 3072.39 573.145 3055.42 554.548C3038.46 535.951 3025.75 514.965 3017.35 491.51C3008.95 468.095 3004.77 444.361 3004.77 420.348C3004.77 396.336 3008.95 372.522 3017.35 348.868C3025.75 325.254 3038.62 304.029 3055.98 285.233C3073.34 266.437 3095.2 251.225 3121.53 239.637C3147.85 228.009 3178.83 222.195 3214.47 222.195C3227.25 222.195 3238.76 223.35 3249.04 225.699C3259.31 228.009 3268.51 230.358 3276.63 232.668C3282.45 234.619 3287.74 236.053 3292.6 237.009C3297.46 237.964 3302.2 238.442 3306.86 238.442V302.953H3301.04C3298.73 290.967 3294.43 280.972 3288.26 273.047C3282.05 265.123 3274.8 259.03 3266.48 254.729C3258.15 250.468 3249.23 247.482 3239.76 245.73C3230.28 243.977 3221.08 243.101 3212.16 243.101H3212.12Z" fill="#1E1C51"/>
<path d="M1273.4 789.656C1272.72 781.691 1269.81 775.678 1264.76 771.656C1259.7 767.634 1252.41 765.643 1242.93 765.643C1234.37 765.643 1227.4 767.236 1222.07 770.422C1216.69 773.608 1214.02 778.267 1214.02 784.36C1214.02 789.775 1216.09 793.797 1220.24 796.465C1224.38 799.134 1232.3 801.762 1243.97 804.39C1254.36 806.66 1262.8 809.009 1269.37 811.399C1275.95 813.788 1281.56 817.531 1286.22 822.549C1290.88 827.566 1293.23 834.376 1293.23 842.858C1293.23 853.65 1288.93 862.609 1280.37 869.738C1271.76 876.866 1260.57 880.45 1246.8 880.45C1229.15 880.45 1215.97 876.507 1207.21 868.662C1198.45 860.778 1193.83 850.583 1193.32 838.039L1209.04 836.685C1209.8 846.721 1213.66 854.048 1220.67 858.627C1227.68 863.207 1236.16 865.516 1246.08 865.516C1255.36 865.516 1262.88 863.605 1268.62 859.782C1274.35 855.959 1277.22 850.782 1277.22 844.212C1277.22 837.641 1274.23 832.385 1268.22 829.239C1262.25 826.093 1252.17 823.027 1238.08 819.96C1223.98 816.894 1213.78 812.633 1207.57 807.098C1201.36 801.563 1198.25 794.395 1198.25 785.554C1198.25 775.519 1202.2 767.236 1210.04 760.666C1217.93 754.095 1228.64 750.83 1242.22 750.83C1255.8 750.83 1267.34 754.095 1275.79 760.626C1284.27 767.157 1288.73 776.435 1289.25 788.461L1273.32 789.736L1273.4 789.656Z" fill="#1E1C51"/>
<path d="M1370.68 750.75C1388.24 750.75 1402.62 756.723 1413.81 768.63C1425 780.537 1430.57 796.266 1430.57 815.779C1430.57 835.292 1424.96 850.862 1413.73 862.689C1402.5 874.516 1388.16 880.45 1370.68 880.45C1353.2 880.45 1338.07 874.317 1327.04 862.052C1316.04 849.787 1310.51 834.814 1310.51 817.133C1310.51 796.545 1316.08 780.338 1327.23 768.51C1338.38 756.683 1352.84 750.75 1370.64 750.75H1370.68ZM1370.52 866.233C1383.22 866.233 1393.54 861.773 1401.46 852.893C1409.35 844.013 1413.33 831.628 1413.41 815.779C1413.41 799.452 1409.39 786.908 1401.3 778.147C1393.22 769.347 1383.1 764.966 1370.88 764.966C1358.65 764.966 1348.02 769.267 1339.9 777.869C1331.81 786.47 1327.75 799.691 1327.75 817.491C1327.75 832.026 1331.74 843.814 1339.66 852.773C1347.58 861.733 1357.9 866.233 1370.56 866.233H1370.52Z" fill="#1E1C51"/>
<path d="M1530.25 878.299H1451.8V752.861H1468.4V863.406H1530.25V878.299Z" fill="#1E1C51"/>
<path d="M1648.56 825.416C1648.56 831.867 1648.2 837.84 1647.48 843.296C1646.77 848.791 1644.9 854.406 1641.83 860.18C1638.76 865.955 1633.82 870.773 1626.94 874.636C1620.05 878.498 1610.89 880.41 1599.42 880.41C1587.95 880.41 1579.23 878.697 1572.38 875.273C1565.53 871.848 1560.51 867.428 1557.33 862.012C1554.14 856.596 1552.11 850.942 1551.19 845.088C1550.32 839.234 1549.88 832.664 1549.88 825.416V752.861H1566.49V825.137C1566.49 832.663 1567.04 839.155 1568.12 844.61C1569.19 850.066 1572.06 854.884 1576.68 859.105C1581.3 863.326 1588.43 865.437 1598.06 865.437C1607.7 865.437 1615.15 863.764 1620.05 860.379C1624.94 857.034 1628.13 852.535 1629.64 846.92C1631.12 841.305 1631.87 834.057 1631.87 825.137V752.861H1648.56V825.416Z" fill="#1E1C51"/>
<path d="M1765.79 767.754H1724.3V878.299H1707.61V767.754H1666.48V752.861H1765.79V767.754Z" fill="#1E1C51"/>
<path d="M1802.39 878.299H1785.7V752.861H1802.39V878.299Z" fill="#1E1C51"/>
<path d="M1886.65 750.75C1904.21 750.75 1918.59 756.723 1929.78 768.63C1940.97 780.537 1946.54 796.266 1946.54 815.779C1946.54 835.292 1940.93 850.862 1929.7 862.689C1918.47 874.516 1904.13 880.45 1886.65 880.45C1869.17 880.45 1854.04 874.317 1843.01 862.052C1832.02 849.787 1826.48 834.814 1826.48 817.133C1826.48 796.545 1832.06 780.338 1843.21 768.51C1854.36 756.683 1868.81 750.75 1886.61 750.75H1886.65ZM1886.49 866.233C1899.2 866.233 1909.51 861.773 1917.43 852.893C1925.32 844.013 1929.3 831.628 1929.38 815.779C1929.38 799.452 1925.36 786.908 1917.27 778.147C1909.19 769.347 1899.08 764.966 1886.85 764.966C1874.63 764.966 1863.99 769.267 1855.87 777.869C1847.79 786.47 1843.72 799.691 1843.72 817.491C1843.72 832.026 1847.71 843.814 1855.63 852.773C1863.55 861.733 1873.87 866.233 1886.53 866.233H1886.49Z" fill="#1E1C51"/>
<path d="M2067.12 878.299H2050.08L1984.53 779.82H1984.17V878.299H1968.44V752.861H1985.37L2050.92 851.34H2051.27V752.861H2067.08V878.299H2067.12Z" fill="#1E1C51"/>
<path d="M2169.07 789.656C2168.39 781.691 2165.48 775.678 2160.43 771.656C2155.37 767.634 2148.08 765.643 2138.61 765.643C2130.04 765.643 2123.07 767.236 2117.74 770.422C2112.36 773.608 2109.69 778.267 2109.69 784.36C2109.69 789.775 2111.77 793.797 2115.91 796.465C2120.05 799.134 2127.97 801.762 2139.64 804.39C2150.03 806.66 2158.48 809.009 2165.05 811.399C2171.62 813.788 2177.23 817.531 2181.89 822.549C2186.55 827.566 2188.9 834.376 2188.9 842.858C2188.9 853.65 2184.6 862.609 2176.04 869.738C2167.44 876.866 2156.25 880.45 2142.47 880.45C2124.83 880.45 2111.65 876.507 2102.89 868.662C2094.12 860.778 2089.5 850.583 2088.99 838.039L2104.72 836.685C2105.47 846.721 2109.34 854.048 2116.34 858.627C2123.35 863.207 2131.84 865.516 2141.75 865.516C2151.03 865.516 2158.56 863.605 2164.29 859.782C2170.02 855.959 2172.89 850.782 2172.89 844.212C2172.89 837.641 2169.91 832.385 2163.89 829.239C2157.92 826.093 2147.84 823.027 2133.75 819.96C2119.65 816.894 2109.46 812.633 2103.24 807.098C2097.03 801.563 2093.93 794.395 2093.93 785.554C2093.93 775.519 2097.87 767.236 2105.71 760.666C2113.6 754.095 2124.31 750.83 2137.89 750.83C2151.47 750.83 2163.02 754.095 2171.46 760.626C2179.94 767.157 2184.4 776.435 2184.92 788.461L2168.99 789.736L2169.07 789.656Z" fill="#1E1C51"/>
<path d="M2260.22 752.86H2307.53C2315.02 752.86 2321.43 753.219 2326.8 753.975C2332.18 754.732 2337.2 756.644 2341.82 759.75C2346.44 762.856 2349.94 767.077 2352.29 772.413C2354.64 777.749 2355.83 783.324 2355.83 789.138C2355.83 800.726 2352.13 810.005 2344.68 816.974C2337.24 823.942 2325.29 827.447 2308.88 827.447H2276.79V878.259H2260.18V752.821L2260.22 752.86ZM2276.79 812.593H2309.04C2328.79 812.593 2338.63 804.947 2338.63 789.656C2338.63 784.638 2337.36 780.218 2334.77 776.355C2332.18 772.493 2329.03 770.103 2325.33 769.187C2321.59 768.232 2316.05 767.794 2308.68 767.794H2276.79V812.633V812.593Z" fill="#1E1C51"/>
<path d="M2479.24 752.861L2430.14 878.299H2413.22L2364.63 752.861H2382.51L2415.13 843.973C2417.6 849.787 2419.75 856.596 2421.62 864.402H2421.98C2423.69 857.711 2425.84 850.902 2428.47 843.973L2462.44 752.861H2479.28H2479.24Z" fill="#1E1C51"/>
<path d="M2583.62 767.754H2542.12V878.299H2525.44V767.754H2484.3V752.861H2583.62V767.754Z" fill="#1E1C51"/>
<path d="M2727.77 878.299H2649.32V752.861H2665.92V863.406H2727.77V878.299Z" fill="#1E1C51"/>
<path d="M2836.76 767.754H2795.26V878.299H2778.58V767.754H2737.44V752.861H2836.76V767.754Z" fill="#1E1C51"/>
<path d="M2854.64 752.86H2897.93C2905.54 752.86 2912.03 753.259 2917.52 754.015C2923.02 754.772 2928.23 756.683 2933.21 759.67C2938.19 762.657 2942.57 766.798 2946.31 772.015C2950.06 777.271 2953 783.284 2955.11 790.094C2957.26 796.903 2958.34 805.186 2958.34 814.863C2958.34 833.34 2953.96 848.512 2945.16 860.419C2936.36 872.326 2921.26 878.259 2899.8 878.259H2854.64V752.821V752.86ZM2871.25 863.406H2898.13C2903.62 863.406 2908.48 863.047 2912.78 862.37C2917.08 861.693 2921.46 859.822 2925.88 856.795C2930.3 853.769 2933.97 848.831 2936.88 841.902C2939.78 835.013 2941.26 825.894 2941.26 814.505C2941.26 808.213 2940.7 802.359 2939.58 796.903C2938.47 791.448 2936.44 786.51 2933.41 782.01C2930.42 777.55 2926.96 774.245 2923.1 772.174C2919.23 770.103 2915.45 768.829 2911.75 768.351C2908.08 767.913 2903.35 767.674 2897.57 767.674H2871.21V863.326L2871.25 863.406Z" fill="#1E1C51"/>
</svg>
